<svg version="1.1" viewBox="-15.0 -15.0 830.0 540.0" fill="none" stroke="none" stroke-linecap="square" stroke-miterlimit="10" xmlns:xlink="http://www.w3.org/1999/xlink" xmlns="http://www.w3.org/2000/svg"><clipPath id="p.0"><path d="m-15 -15l830 0l0 540l-830 0l0 -540z" clip-rule="nonzero"/></clipPath><g clip-path="url(#p.0)"><path fill="#000000" fill-opacity="0.0" d="m0 0l800.0 0l0 600.0l-800.0 0z" fill-rule="evenodd"/><path stroke="#ffffff" stroke-width="42.30708661417323" stroke-linejoin="round" stroke-linecap="butt" d="m745.2908 250.62965l-362.70868 -75.33859" fill-rule="evenodd"/><path stroke="#ffffff" stroke-width="42.30708661417323" stroke-linejoin="round" stroke-linecap="butt" d="m766.2935 152.48422l-362.70865 -75.338585" fill-rule="evenodd"/><path stroke="#ffffff" stroke-width="42.30708661417323" stroke-linejoin="round" stroke-linecap="butt" d="m761.0136 176.99138l-362.70865 -75.338585" fill-rule="evenodd"/><path stroke="#ffffff" stroke-width="42.30708661417323" stroke-linejoin="round" stroke-linecap="butt" d="m750.5239 226.07578l-362.70865 -75.33859" fill-rule="evenodd"/><path stroke="#ffffff" stroke-width="42.30708661417323" stroke-linejoin="round" stroke-linecap="butt" d="m30.350597 201.49854l362.70868 -75.338585" fill-rule="evenodd"/><path stroke="#ffffff" stroke-width="42.30708661417323" stroke-linejoin="round" stroke-linecap="butt" d="m755.73376 201.49854l-362.70868 -75.338585" fill-rule="evenodd"/><path stroke="#cfe2f3" stroke-width="26.30708661417323" stroke-linejoin="round" stroke-linecap="butt" d="m745.2908 250.62965l-362.70868 -75.33859" fill-rule="evenodd"/><path stroke="#032340" stroke-width="26.30708661417323" stroke-linejoin="round" stroke-linecap="butt" d="m766.2935 152.48422l-362.70865 -75.338585" fill-rule="evenodd"/><path stroke="#073763" stroke-width="26.30708661417323" stroke-linejoin="round" stroke-linecap="butt" d="m761.0136 176.99138l-362.70865 -75.338585" fill-rule="evenodd"/><path stroke="#9fc5e8" stroke-width="26.30708661417323" stroke-linejoin="round" stroke-linecap="butt" d="m750.5239 226.07578l-362.70865 -75.33859" fill-rule="evenodd"/><path stroke="#3d85c6" stroke-width="26.30708661417323" stroke-linejoin="round" stroke-linecap="butt" d="m30.350597 201.49854l362.70868 -75.338585" fill-rule="evenodd"/><path stroke="#3d85c6" stroke-width="26.30708661417323" stroke-linejoin="round" stroke-linecap="butt" d="m755.73376 201.49854l-362.70868 -75.338585" fill-rule="evenodd"/><path fill="#ffffff" stroke="#ffffff" stroke-width="16" stroke-linejoin="round" d="m214.3287 276.8504l174.36221 -276.8504l174.36218 276.8504z" fill-rule="evenodd"/><path fill="#cfe2f3" d="m214.3287 276.8504l174.36221 -276.8504l174.36218 276.8504z" fill-rule="evenodd"/><path fill="#ffffff" stroke="#ffffff" stroke-width="16" stroke-linejoin="round" d="m30.951408 493.5647q-3.28125 0 -5.59375 -2.1875q-2.296875 -2.1875 -2.296875 -5.484375l0 -178.6406q0 -3.296875 2.296875 -5.484375q2.3125 -2.1875 5.59375 -2.1875l29.8125 0q3.296875 0 5.265625 1.96875q1.96875 1.96875 1.96875 5.03125q0 2.859375 -1.96875 4.9375q-1.96875 2.078125 -5.265625 2.078125l-19.9375 0l0 165.9375l19.9375 0q3.296875 0 5.265625 2.078125q1.96875 2.09375 1.96875 4.9374695q0 2.859375 -1.96875 4.9375q-1.96875 2.078125 -5.265625 2.078125l-29.8125 0zm62.689636 -37.921844q-4.375 0 -6.578125 -2.40625q-2.1875 -2.40625 -2.1875 -6.796875l0 -139.40625q0 -4.390625 2.1875 -6.6875q2.203125 -2.3125 6.578125 -2.3125q4.171875 0 6.578125 2.3125q2.421875 2.296875 2.421875 6.6875l0 87.890625l0.4375 0l44.937492 -42.96875q3.0625 -2.84375 5.359375 -4.375q2.3125 -1.53125 6.25 -1.53125q3.515625 0 5.484375 1.859375q1.96875 1.859375 1.859375 4.609375q-0.109375 2.734375 -2.734375 5.796875l-47.796867 45.375l0 -9.640625l51.953117 48.890625q3.078125 3.0625 3.078125 5.921875q0 2.84375 -2.09375 4.8125q-2.078125 1.96875 -5.359375 1.96875q-3.953125 0 -6.359375 -1.640625q-2.40625 -1.640625 -5.921875 -4.9375l-48.656242 -44.9375l-0.4375 0l0 42.3125q0 9.203125 -9.0 9.203125z" fill-rule="nonzero"/><path fill="#ffffff" stroke="#ffffff" stroke-width="16" stroke-linejoin="round" d="m256.29916 456.08035q-10.968765 0 -19.625015 -4.265625q-8.656265 -4.28125 -13.70314 -11.734375q-5.03125 -7.453125 -5.03125 -16.65625q0 -11.84375 6.015625 -18.625q6.03125 -6.796875 19.95314 -9.640625q13.92189 -2.859375 38.031265 -2.859375l9.859375 0l0 11.609375l-9.640625 0q-17.75 0 -27.95314 1.65625q-10.1875 1.640625 -14.25 5.59375q-4.046875 3.9375 -4.046875 11.171875q0 8.984375 6.25 14.6875q6.25 5.6875 16.98439 5.6875q8.765625 0 15.453125 -4.15625q6.6875 -4.171875 10.515625 -11.40625q3.84375 -7.234375 3.84375 -16.65625l0 -24.984375q0 -13.59375 -5.484375 -19.609375q-5.46875 -6.03125 -17.96875 -6.03125q-7.671875 0 -15.343765 1.96875q-7.671875 1.96875 -16.21875 6.359375q-3.0781403 1.53125 -5.2656403 0.984375q-2.1875 -0.546875 -3.515625 -2.296875q-1.3125 -1.765625 -1.53125 -4.0625q-0.21875 -2.296875 0.984375 -4.484375q1.21875 -2.203125 3.84375 -3.515625q9.64064 -4.828125 19.062515 -7.015625q9.437515 -2.1875 17.98439 -2.1875q13.8125 0 22.796875 4.5q8.984375 4.484375 13.359375 13.578125q4.390625 9.09375 4.390625 23.34375l0 59.40625q0 4.390625 -2.078125 6.796875q-2.078125 2.40625 -6.03125 2.40625q-4.15625 0 -6.359375 -2.40625q-2.1875 -2.40625 -2.1875 -6.796875l0 -17.09375l1.96875 0q-1.75 8.328125 -6.6875 14.25q-4.921875 5.90625 -12.15625 9.203125q-7.234375 3.28125 -16.21875 3.28125z" fill-rule="nonzero"/><path fill="#ffffff" stroke="#ffffff" stroke-width="16" stroke-linejoin="round" d="m375.97083 455.64285q-4.375 0 -6.578125 -2.40625q-2.1875 -2.40625 -2.1875 -6.796875l0 -91.40625q0 -4.390625 2.1875 -6.6875q2.203125 -2.296875 6.359375 -2.296875q4.171875 0 6.46875 2.296875q2.296875 2.296875 2.296875 6.6875l0 18.84375l-2.40625 -2.625q4.609375 -12.71875 15.015625 -19.171875q10.421875 -6.46875 24.0 -6.46875q12.71875 0 21.15625 4.609375q8.4375 4.59375 12.59375 13.90625q4.171875 9.3125 4.171875 23.5625l0 58.75q0 4.390625 -2.296875 6.796875q-2.296875 2.40625 -6.46875 2.40625q-4.375 0 -6.6875 -2.40625q-2.296875 -2.40625 -2.296875 -6.796875l0 -57.65625q0 -14.90625 -5.8125 -21.796875q-5.8125 -6.90625 -18.515625 -6.90625q-14.6875 0 -23.34375 9.09375q-8.65625 9.09375 -8.65625 24.21875l0 53.046875q0 9.203125 -9.0 9.203125z" fill-rule="nonzero"/><path fill="#ffffff" stroke="#ffffff" stroke-width="16" stroke-linejoin="round" d="m552.4253 456.08035q-15.78125 0 -24.109375 -9.640625q-8.328125 -9.640625 -8.328125 -27.625l0 -111.78125q0 -4.390625 2.1875 -6.6875q2.203125 -2.3125 6.578125 -2.3125q4.171875 0 6.578125 2.3125q2.421875 2.296875 2.421875 6.6875l0 110.46875q0 11.84375 4.703125 17.65625q4.71875 5.796875 13.921875 5.796875q1.96875 0 3.5 -0.21875q1.546875 -0.21875 3.078125 -0.21875q2.40625 -0.21875 3.390625 1.109375q0.984375 1.3125 0.984375 5.25q0 3.953125 -1.75 5.921875q-1.75 1.96875 -5.703125 2.625q-1.75 0.21875 -3.71875 0.4375q-1.96875 0.21875 -3.734375 0.21875z" fill-rule="nonzero"/><path fill="#ffffff" stroke="#ffffff" stroke-width="16" stroke-linejoin="round" d="m636.8191 495.09595q-3.28125 0 -5.265625 -1.75q-1.96875 -1.75 -2.296875 -4.71875q-0.328125 -2.953125 0.984375 -6.0155945l15.125 -33.984375l0 7.671875l-42.078125 -97.765625q-1.3125 -3.28125 -0.875 -6.125q0.4375 -2.859375 2.625 -4.609375q2.1875 -1.75 6.140625 -1.75q3.5 0 5.46875 1.53125q1.984375 1.53125 3.515625 5.484375l35.953125 88.109375l-5.921875 0l36.390625 -88.109375q1.75 -3.953125 3.71875 -5.484375q1.984375 -1.53125 5.703125 -1.53125q3.515625 0 5.375 1.75q1.859375 1.75 2.1875 4.5q0.328125 2.734375 -0.984375 6.015625l-56.109375 129.7656q-1.765625 3.953125 -3.84375 5.484375q-2.078125 1.53125 -5.8125 1.53125zm79.79547 -1.53125q-3.28125 0 -5.265625 -2.078125q-1.96875 -2.078125 -1.96875 -4.9375q0 -2.8437195 1.96875 -4.9374695q1.984375 -2.078125 5.265625 -2.078125l19.953125 0l0 -165.9375l-19.953125 0q-3.28125 0 -5.265625 -2.078125q-1.96875 -2.078125 -1.96875 -4.9375q0 -3.0625 1.96875 -5.03125q1.984375 -1.96875 5.265625 -1.96875l30.03125 0q3.28125 0 5.46875 2.1875q2.203125 2.1875 2.203125 5.484375l0 178.6406q0 3.296875 -2.203125 5.484375q-2.1875 2.1875 -5.46875 2.1875l-30.03125 0z" fill-rule="nonzero"/><path fill="#032340" d="m30.951408 493.5647q-3.28125 0 -5.59375 -2.1875q-2.296875 -2.1875 -2.296875 -5.484375l0 -178.6406q0 -3.296875 2.296875 -5.484375q2.3125 -2.1875 5.59375 -2.1875l29.8125 0q3.296875 0 5.265625 1.96875q1.96875 1.96875 1.96875 5.03125q0 2.859375 -1.96875 4.9375q-1.96875 2.078125 -5.265625 2.078125l-19.9375 0l0 165.9375l19.9375 0q3.296875 0 5.265625 2.078125q1.96875 2.09375 1.96875 4.9374695q0 2.859375 -1.96875 4.9375q-1.96875 2.078125 -5.265625 2.078125l-29.8125 0zm62.689636 -37.921844q-4.375 0 -6.578125 -2.40625q-2.1875 -2.40625 -2.1875 -6.796875l0 -139.40625q0 -4.390625 2.1875 -6.6875q2.203125 -2.3125 6.578125 -2.3125q4.171875 0 6.578125 2.3125q2.421875 2.296875 2.421875 6.6875l0 87.890625l0.4375 0l44.937492 -42.96875q3.0625 -2.84375 5.359375 -4.375q2.3125 -1.53125 6.25 -1.53125q3.515625 0 5.484375 1.859375q1.96875 1.859375 1.859375 4.609375q-0.109375 2.734375 -2.734375 5.796875l-47.796867 45.375l0 -9.640625l51.953117 48.890625q3.078125 3.0625 3.078125 5.921875q0 2.84375 -2.09375 4.8125q-2.078125 1.96875 -5.359375 1.96875q-3.953125 0 -6.359375 -1.640625q-2.40625 -1.640625 -5.921875 -4.9375l-48.656242 -44.9375l-0.4375 0l0 42.3125q0 9.203125 -9.0 9.203125z" fill-rule="nonzero"/><path fill="#032340" d="m256.29916 456.08035q-10.968765 0 -19.625015 -4.265625q-8.656265 -4.28125 -13.70314 -11.734375q-5.03125 -7.453125 -5.03125 -16.65625q0 -11.84375 6.015625 -18.625q6.03125 -6.796875 19.95314 -9.640625q13.92189 -2.859375 38.031265 -2.859375l9.859375 0l0 11.609375l-9.640625 0q-17.75 0 -27.95314 1.65625q-10.1875 1.640625 -14.25 5.59375q-4.046875 3.9375 -4.046875 11.171875q0 8.984375 6.25 14.6875q6.25 5.6875 16.98439 5.6875q8.765625 0 15.453125 -4.15625q6.6875 -4.171875 10.515625 -11.40625q3.84375 -7.234375 3.84375 -16.65625l0 -24.984375q0 -13.59375 -5.484375 -19.609375q-5.46875 -6.03125 -17.96875 -6.03125q-7.671875 0 -15.343765 1.96875q-7.671875 1.96875 -16.21875 6.359375q-3.0781403 1.53125 -5.2656403 0.984375q-2.1875 -0.546875 -3.515625 -2.296875q-1.3125 -1.765625 -1.53125 -4.0625q-0.21875 -2.296875 0.984375 -4.484375q1.21875 -2.203125 3.84375 -3.515625q9.64064 -4.828125 19.062515 -7.015625q9.437515 -2.1875 17.98439 -2.1875q13.8125 0 22.796875 4.5q8.984375 4.484375 13.359375 13.578125q4.390625 9.09375 4.390625 23.34375l0 59.40625q0 4.390625 -2.078125 6.796875q-2.078125 2.40625 -6.03125 2.40625q-4.15625 0 -6.359375 -2.40625q-2.1875 -2.40625 -2.1875 -6.796875l0 -17.09375l1.96875 0q-1.75 8.328125 -6.6875 14.25q-4.921875 5.90625 -12.15625 9.203125q-7.234375 3.28125 -16.21875 3.28125z" fill-rule="nonzero"/><path fill="#032340" d="m375.97083 455.64285q-4.375 0 -6.578125 -2.40625q-2.1875 -2.40625 -2.1875 -6.796875l0 -91.40625q0 -4.390625 2.1875 -6.6875q2.203125 -2.296875 6.359375 -2.296875q4.171875 0 6.46875 2.296875q2.296875 2.296875 2.296875 6.6875l0 18.84375l-2.40625 -2.625q4.609375 -12.71875 15.015625 -19.171875q10.421875 -6.46875 24.0 -6.46875q12.71875 0 21.15625 4.609375q8.4375 4.59375 12.59375 13.90625q4.171875 9.3125 4.171875 23.5625l0 58.75q0 4.390625 -2.296875 6.796875q-2.296875 2.40625 -6.46875 2.40625q-4.375 0 -6.6875 -2.40625q-2.296875 -2.40625 -2.296875 -6.796875l0 -57.65625q0 -14.90625 -5.8125 -21.796875q-5.8125 -6.90625 -18.515625 -6.90625q-14.6875 0 -23.34375 9.09375q-8.65625 9.09375 -8.65625 24.21875l0 53.046875q0 9.203125 -9.0 9.203125z" fill-rule="nonzero"/><path fill="#032340" d="m552.4253 456.08035q-15.78125 0 -24.109375 -9.640625q-8.328125 -9.640625 -8.328125 -27.625l0 -111.78125q0 -4.390625 2.1875 -6.6875q2.203125 -2.3125 6.578125 -2.3125q4.171875 0 6.578125 2.3125q2.421875 2.296875 2.421875 6.6875l0 110.46875q0 11.84375 4.703125 17.65625q4.71875 5.796875 13.921875 5.796875q1.96875 0 3.5 -0.21875q1.546875 -0.21875 3.078125 -0.21875q2.40625 -0.21875 3.390625 1.109375q0.984375 1.3125 0.984375 5.25q0 3.953125 -1.75 5.921875q-1.75 1.96875 -5.703125 2.625q-1.75 0.21875 -3.71875 0.4375q-1.96875 0.21875 -3.734375 0.21875z" fill-rule="nonzero"/><path fill="#032340" d="m636.8191 495.09595q-3.28125 0 -5.265625 -1.75q-1.96875 -1.75 -2.296875 -4.71875q-0.328125 -2.953125 0.984375 -6.0155945l15.125 -33.984375l0 7.671875l-42.078125 -97.765625q-1.3125 -3.28125 -0.875 -6.125q0.4375 -2.859375 2.625 -4.609375q2.1875 -1.75 6.140625 -1.75q3.5 0 5.46875 1.53125q1.984375 1.53125 3.515625 5.484375l35.953125 88.109375l-5.921875 0l36.390625 -88.109375q1.75 -3.953125 3.71875 -5.484375q1.984375 -1.53125 5.703125 -1.53125q3.515625 0 5.375 1.75q1.859375 1.75 2.1875 4.5q0.328125 2.734375 -0.984375 6.015625l-56.109375 129.7656q-1.765625 3.953125 -3.84375 5.484375q-2.078125 1.53125 -5.8125 1.53125zm79.79547 -1.53125q-3.28125 0 -5.265625 -2.078125q-1.96875 -2.078125 -1.96875 -4.9375q0 -2.8437195 1.96875 -4.9374695q1.984375 -2.078125 5.265625 -2.078125l19.953125 0l0 -165.9375l-19.953125 0q-3.28125 0 -5.265625 -2.078125q-1.96875 -2.078125 -1.96875 -4.9375q0 -3.0625 1.96875 -5.03125q1.984375 -1.96875 5.265625 -1.96875l30.03125 0q3.28125 0 5.46875 2.1875q2.203125 2.1875 2.203125 5.484375l0 178.6406q0 3.296875 -2.203125 5.484375q-2.1875 2.1875 -5.46875 2.1875l-30.03125 0z" fill-rule="nonzero"/></g></svg>